<svg viewBox="132.899 40.2567 256.6454 439.8871" width="256.645px" height="439.887px" xmlns="http://www.w3.org/2000/svg">

<!-- Head & Body -->
<path d="M 217.927 50.569 C 227.982 49.869 240.764 50.112 250.509 51.161 C 259.072 52.083 266.404 53.464 273.614 55.9 C 280.591 58.258 287.116 61.408 293.164 65.379 C 299.27 69.389 305 74.381 310.047 79.893 C 315.192 85.512 320.346 92.756 323.673 98.851 C 326.569 104.155 328.115 109.005 329.597 114.254 C 331.071 119.472 332.054 124.673 332.559 130.249 C 333.09 136.102 333.228 142.463 332.559 148.614 C 331.876 154.902 330.511 161.282 328.412 167.571 C 326.227 174.12 323.59 180.862 319.526 187.121 C 315.166 193.836 308.869 200.766 302.642 206.374 C 296.509 211.899 289.319 216.782 282.5 220.592 C 276.076 224.182 269.946 226.738 262.95 228.886 C 262.309 229.083 261.663 229.275 261.012 229.463 C 262.685 230.208 264.328 230.83 265.912 231.256 C 275.272 233.777 286.471 234.484 294.348 233.626 C 300.731 232.93 304.893 231.359 310.344 228.294 C 316.793 224.667 324.788 217.349 330.19 212.002 C 334.842 207.398 337.646 205.256 341.445 198.377 C 347.259 187.852 354.723 158.755 359.218 150.391 C 361.445 146.248 362.524 145.208 364.846 143.578 C 367.165 141.951 369.992 140.402 373.14 140.616 C 377.005 140.879 383.784 143.692 386.469 146.836 C 388.914 149.7 389.9 152.533 389.431 158.092 C 388.591 168.069 378.099 194.011 372.844 205.486 C 369.154 213.54 366.067 218.125 362.18 223.258 C 358.61 227.974 354.785 231.326 350.628 235.403 C 346.231 239.715 341.877 244.502 336.41 248.436 C 330.536 252.662 323.135 257.014 316.268 259.692 C 309.694 262.256 302.488 263.676 296.126 264.431 C 290.302 265.122 286.122 265.165 279.538 264.431 C 271.03 263.484 258.229 261.676 248.732 257.915 C 246.52 257.039 244.153 255.993 241.771 254.837 C 241.542 265.109 242.61 276.433 241.919 290.794 C 241.112 307.56 239.449 338.428 236.97 357.412 C 237.04 357.518 237.11 357.626 237.18 357.737 C 242.128 365.575 246.447 389.509 252.583 405.723 C 258.994 422.664 272.106 447.52 275.095 457.263 C 276.529 461.937 276.912 463.082 276.28 466.149 C 275.555 469.664 272.93 474.799 270.059 477.109 C 267.391 479.257 263.424 480.461 259.988 480.071 C 256.232 479.644 252.583 478.958 248.436 473.851 C 240.505 464.082 228.052 429.913 221.13 410.218 C 213.591 427.923 198.261 459.198 192.749 467.927 C 190.364 471.703 189.982 472.151 187.713 473.555 C 185.125 475.156 181.078 476.907 177.642 476.517 C 173.886 476.09 168.5 473.323 166.09 470.296 C 163.793 467.411 162.128 465.129 163.128 459.04 C 165.29 445.874 190.745 403.657 197.488 386.765 C 201.088 377.747 201.836 371.031 203.634 365.971 C 203.591 363.997 203.769 361.715 204.005 357.737 C 204.783 344.595 210.066 306.937 211.114 287.239 C 211.241 284.85 211.317 282.524 211.355 280.259 C 208.583 286.16 206.173 291.638 204.597 296.126 C 199.559 310.474 196.948 321.851 195.118 332.855 C 193.557 342.249 195.219 352.561 193.341 358.329 C 192.062 362.259 190.273 364.502 187.713 366.327 C 185.08 368.204 181.078 369.679 177.642 369.289 C 173.886 368.862 168.487 365.698 166.09 363.069 C 164.099 360.885 163.694 358.662 163.128 355.367 C 162.37 350.949 162.387 345.252 163.128 338.187 C 164.133 328.603 167.145 313.776 170.237 302.05 C 173.287 290.483 177.059 279.621 181.493 268.282 C 186.091 256.523 192.353 242.01 197.488 232.737 C 197.705 232.344 197.922 231.953 198.138 231.565 C 196.154 231.124 194.255 230.627 192.453 230.071 C 187.467 228.533 184.538 227.53 179.419 224.147 C 172.043 219.272 159.632 209.91 152.464 200.746 C 145.334 191.63 139.365 179.805 136.469 169.348 C 133.788 159.664 134.289 149.26 134.692 140.32 C 135.058 132.21 136.34 124.64 138.246 117.808 C 140.003 111.51 141.432 107.55 145.355 100.628 C 150.966 90.73 162.726 71.147 171.718 63.602 C 178.513 57.901 184.989 56.874 192.453 54.716 C 200.329 52.438 208.767 51.206 217.927 50.569 Z" style="stroke: rgb(255, 255, 255); fill: rgb(255, 241, 227)" transform="matrix(1, 0, 0, 1, -5.684341886080802e-14, -7.105427357601002e-15)"/>
<ellipse style="stroke: rgb(0, 0, 0)" cx="178.614" cy="141.16" rx="7.998" ry="7.405" transform="matrix(1, 0, 0, 1, -5.684341886080802e-14, -7.105427357601002e-15)"/>
<ellipse style="stroke: rgb(255, 255, 255); stroke-opacity: 0" cx="307.168" cy="141.456" rx="8.59" ry="8.294" transform="matrix(1, 0, 0, 1, -5.684341886080802e-14, -7.105427357601002e-15)"/>

<!-- Hat Cap -->
<path style="stroke: rgb(0, 0, 0); stroke-opacity: 0; fill: rgb(240, 240, 240)" d="M 132.899 111.704 C 133.196 110.812 133.563 109.94 133.791 109.028 C 133.863 108.739 133.791 108.433 133.791 108.136 C 133.791 107.839 133.581 107.454 133.791 107.244 C 134.001 107.034 134.473 107.454 134.683 107.244 C 134.893 107.034 134.683 106.649 134.683 106.352 C 134.683 106.055 134.683 105.758 134.683 105.46 C 134.683 105.163 134.473 104.779 134.683 104.568 C 134.893 104.358 135.365 104.779 135.575 104.568 C 135.995 104.148 135.154 103.205 135.575 102.785 C 135.785 102.574 136.257 102.995 136.467 102.785 C 136.677 102.574 136.257 102.103 136.467 101.893 C 136.677 101.682 137.148 102.103 137.359 101.893 C 137.779 101.472 136.938 100.529 137.359 100.109 C 137.569 99.899 138.04 100.319 138.251 100.109 C 138.461 99.899 138.04 99.427 138.251 99.217 C 138.461 99.007 138.932 99.427 139.143 99.217 C 139.44 98.92 138.845 97.73 139.143 97.433 C 139.353 97.223 139.824 97.643 140.034 97.433 C 140.455 97.013 139.614 96.07 140.034 95.649 C 140.245 95.439 140.716 95.859 140.926 95.649 C 141.137 95.439 140.716 94.967 140.926 94.757 C 141.137 94.547 141.608 94.967 141.818 94.757 C 142.239 94.337 141.398 93.394 141.818 92.973 C 142.028 92.763 142.5 93.184 142.71 92.973 C 143.007 92.676 142.413 91.487 142.71 91.19 C 142.92 90.979 143.392 91.4 143.602 91.19 C 143.812 90.979 143.392 90.508 143.602 90.298 C 143.812 90.087 144.284 90.508 144.494 90.298 C 144.914 89.877 144.074 88.934 144.494 88.514 C 144.704 88.304 145.176 88.724 145.386 88.514 C 145.596 88.304 145.253 87.888 145.386 87.622 C 145.574 87.246 146.09 87.106 146.278 86.73 C 146.411 86.464 146.068 86.048 146.278 85.838 C 146.488 85.628 146.96 86.048 147.17 85.838 C 147.467 85.541 146.872 84.352 147.17 84.054 C 147.38 83.844 147.851 84.264 148.062 84.054 C 148.272 83.844 147.851 83.373 148.062 83.162 C 148.272 82.952 148.743 83.373 148.954 83.162 C 149.374 82.742 148.533 81.799 148.954 81.379 C 149.164 81.168 149.635 81.589 149.846 81.379 C 150.056 81.168 149.635 80.697 149.846 80.487 C 150.056 80.276 150.527 80.697 150.737 80.487 C 151.158 80.066 150.317 79.123 150.737 78.703 C 150.948 78.493 151.419 78.913 151.629 78.703 C 151.84 78.493 151.419 78.021 151.629 77.811 C 151.84 77.601 152.311 78.021 152.521 77.811 C 152.819 77.514 152.224 76.324 152.521 76.027 C 152.731 75.817 153.203 76.237 153.413 76.027 C 153.623 75.817 153.203 75.345 153.413 75.135 C 153.623 74.925 154.095 75.345 154.305 75.135 C 154.515 74.925 154.095 74.453 154.305 74.243 C 154.515 74.033 154.987 74.453 155.197 74.243 C 155.407 74.033 154.987 73.561 155.197 73.351 C 155.407 73.141 155.879 73.561 156.089 73.351 C 156.299 73.141 155.879 72.67 156.089 72.459 C 156.299 72.249 156.771 72.67 156.981 72.459 C 157.401 72.039 156.56 71.096 156.981 70.676 C 157.191 70.465 157.663 70.886 157.873 70.676 C 158.083 70.465 157.663 69.994 157.873 69.784 C 158.083 69.573 158.554 69.994 158.765 69.784 C 158.975 69.573 158.554 69.102 158.765 68.892 C 159.062 68.594 160.251 69.189 160.548 68.892 C 160.759 68.681 160.338 68.21 160.548 68 C 160.759 67.79 161.23 68.21 161.44 68 C 161.651 67.79 161.23 67.318 161.44 67.108 C 161.651 66.898 162.122 67.318 162.332 67.108 C 162.543 66.898 162.122 66.426 162.332 66.216 C 162.543 66.006 163.014 66.426 163.224 66.216 C 163.434 66.006 163.014 65.534 163.224 65.324 C 163.434 65.114 163.906 65.534 164.116 65.324 C 164.326 65.114 163.906 64.642 164.116 64.432 C 164.326 64.222 164.798 64.642 165.008 64.432 C 165.218 64.222 164.798 63.75 165.008 63.54 C 165.218 63.33 165.634 63.673 165.9 63.54 C 166.276 63.352 166.416 62.836 166.792 62.648 C 167.058 62.515 167.474 62.858 167.684 62.648 C 167.894 62.438 167.474 61.967 167.684 61.756 C 167.894 61.546 168.366 61.967 168.576 61.756 C 168.786 61.546 168.366 61.075 168.576 60.864 C 168.786 60.654 169.257 61.075 169.468 60.864 C 169.678 60.654 169.257 60.183 169.468 59.973 C 169.765 59.675 170.954 60.27 171.251 59.973 C 171.462 59.762 171.041 59.291 171.251 59.081 C 171.462 58.87 171.933 59.291 172.143 59.081 C 172.354 58.87 171.933 58.399 172.143 58.189 C 172.441 57.891 173.63 58.486 173.927 58.189 C 174.137 57.978 173.717 57.507 173.927 57.297 C 174.137 57.087 174.609 57.507 174.819 57.297 C 175.029 57.087 174.609 56.615 174.819 56.405 C 175.116 56.108 176.306 56.702 176.603 56.405 C 176.813 56.195 176.393 55.723 176.603 55.513 C 176.9 55.216 178.09 55.81 178.387 55.513 C 178.597 55.303 178.177 54.831 178.387 54.621 C 178.597 54.411 179.069 54.831 179.279 54.621 C 179.489 54.411 179.069 53.939 179.279 53.729 C 179.576 53.432 180.765 54.026 181.063 53.729 C 181.273 53.519 180.852 53.047 181.063 52.837 C 181.273 52.627 181.657 52.837 181.954 52.837 C 182.252 52.837 182.549 52.837 182.846 52.837 C 183.144 52.837 183.528 53.047 183.738 52.837 C 183.949 52.627 183.528 52.155 183.738 51.945 C 184.036 51.648 185.225 52.243 185.522 51.945 C 185.732 51.735 185.312 51.264 185.522 51.053 C 185.732 50.843 186.117 51.053 186.414 51.053 C 186.711 51.053 187.009 51.053 187.306 51.053 C 187.603 51.053 187.988 51.264 188.198 51.053 C 188.408 50.843 187.988 50.372 188.198 50.161 C 188.408 49.951 188.793 50.161 189.09 50.161 C 189.387 50.161 189.684 50.161 189.982 50.161 C 190.279 50.161 190.663 50.372 190.874 50.161 C 191.084 49.951 190.663 49.48 190.874 49.27 C 191.084 49.059 191.468 49.27 191.766 49.27 C 192.955 49.27 194.144 49.27 195.333 49.27 C 195.631 49.27 196.015 49.48 196.225 49.27 C 196.435 49.059 196.015 48.588 196.225 48.378 C 196.435 48.167 196.82 48.378 197.117 48.378 C 198.306 48.378 199.496 48.378 200.685 48.378 C 203.955 48.378 207.225 48.378 210.496 48.378 C 211.388 48.378 212.28 48.378 213.172 48.378 C 213.469 48.378 213.853 48.588 214.063 48.378 C 214.274 48.167 213.853 47.696 214.063 47.486 C 214.274 47.275 214.658 47.486 214.955 47.486 C 215.253 47.486 215.55 47.486 215.847 47.486 C 217.037 47.486 218.226 47.486 219.415 47.486 C 219.712 47.486 220.01 47.486 220.307 47.486 C 220.604 47.486 220.989 47.696 221.199 47.486 C 221.409 47.275 220.989 46.804 221.199 46.594 C 221.409 46.384 221.793 46.594 222.091 46.594 C 222.685 46.594 223.28 46.594 223.875 46.594 C 225.956 46.594 228.037 46.594 230.118 46.594 C 230.415 46.594 230.713 46.594 231.01 46.594 C 231.307 46.594 231.692 46.804 231.902 46.594 C 232.112 46.384 231.692 45.912 231.902 45.702 C 232.112 45.492 232.496 45.702 232.794 45.702 C 233.686 45.702 234.578 45.702 235.469 45.702 C 239.037 45.702 242.605 45.702 246.172 45.702 C 247.362 45.702 248.551 45.702 249.74 45.702 C 250.037 45.702 250.422 45.492 250.632 45.702 C 250.842 45.912 250.422 46.384 250.632 46.594 C 250.842 46.804 251.227 46.594 251.524 46.594 C 252.713 46.594 253.902 46.594 255.092 46.594 C 255.389 46.594 255.773 46.384 255.984 46.594 C 256.194 46.804 255.773 47.275 255.984 47.486 C 256.194 47.696 256.578 47.486 256.875 47.486 C 258.065 47.486 259.254 47.486 260.443 47.486 C 260.74 47.486 261.125 47.275 261.335 47.486 C 261.545 47.696 261.125 48.167 261.335 48.378 C 261.545 48.588 261.93 48.378 262.227 48.378 C 263.416 48.378 264.605 48.378 265.795 48.378 C 266.092 48.378 266.476 48.167 266.687 48.378 C 266.897 48.588 266.476 49.059 266.687 49.27 C 266.897 49.48 267.281 49.27 267.578 49.27 C 268.768 49.27 269.957 49.27 271.146 49.27 C 271.443 49.27 271.828 49.059 272.038 49.27 C 272.248 49.48 271.828 49.951 272.038 50.161 C 272.248 50.372 272.633 50.161 272.93 50.161 C 274.119 50.161 275.308 50.161 276.498 50.161 C 276.795 50.161 277.179 49.951 277.39 50.161 C 277.6 50.372 277.179 50.843 277.39 51.053 C 277.6 51.264 277.984 51.053 278.281 51.053 C 278.579 51.053 278.876 51.053 279.173 51.053 C 280.363 51.053 281.552 51.053 282.741 51.053 C 283.038 51.053 283.423 50.843 283.633 51.053 C 283.843 51.264 283.423 51.735 283.633 51.945 C 283.843 52.155 284.228 51.945 284.525 51.945 C 284.822 51.945 285.119 51.945 285.417 51.945 C 285.714 51.945 286.098 51.735 286.309 51.945 C 286.519 52.155 286.098 52.627 286.309 52.837 C 286.606 53.134 287.795 52.54 288.093 52.837 C 288.303 53.047 287.882 53.519 288.093 53.729 C 288.513 54.15 289.456 53.309 289.876 53.729 C 290.087 53.939 289.666 54.411 289.876 54.621 C 290.174 54.918 291.363 54.324 291.66 54.621 C 291.87 54.831 291.45 55.303 291.66 55.513 C 292.081 55.933 293.024 55.092 293.444 55.513 C 293.654 55.723 293.234 56.195 293.444 56.405 C 293.654 56.615 294.126 56.195 294.336 56.405 C 294.546 56.615 294.126 57.087 294.336 57.297 C 294.756 57.717 295.699 56.876 296.12 57.297 C 296.33 57.507 295.91 57.978 296.12 58.189 C 296.417 58.486 297.606 57.891 297.904 58.189 C 298.114 58.399 297.693 58.87 297.904 59.081 C 298.114 59.291 298.585 58.87 298.796 59.081 C 299.006 59.291 298.585 59.762 298.796 59.973 C 299.093 60.27 300.282 59.675 300.579 59.973 C 300.79 60.183 300.369 60.654 300.579 60.864 C 300.79 61.075 301.261 60.654 301.471 60.864 C 301.681 61.075 301.261 61.546 301.471 61.756 C 301.681 61.967 302.153 61.546 302.363 61.756 C 302.573 61.967 302.153 62.438 302.363 62.648 C 302.573 62.858 303.045 62.438 303.255 62.648 C 303.465 62.858 303.045 63.33 303.255 63.54 C 303.465 63.75 303.937 63.33 304.147 63.54 C 304.357 63.75 303.937 64.222 304.147 64.432 C 304.357 64.642 304.829 64.222 305.039 64.432 C 305.249 64.642 304.829 65.114 305.039 65.324 C 305.249 65.534 305.721 65.114 305.931 65.324 C 306.141 65.534 305.721 66.006 305.931 66.216 C 306.141 66.426 306.613 66.006 306.823 66.216 C 307.033 66.426 306.613 66.898 306.823 67.108 C 307.033 67.318 307.504 66.898 307.715 67.108 C 307.925 67.318 307.504 67.79 307.715 68 C 307.925 68.21 308.396 67.79 308.607 68 C 308.817 68.21 308.396 68.681 308.607 68.892 C 308.817 69.102 309.288 68.681 309.499 68.892 C 309.709 69.102 309.288 69.573 309.499 69.784 C 309.709 69.994 310.18 69.573 310.39 69.784 C 310.601 69.994 310.18 70.465 310.39 70.676 C 310.601 70.886 311.072 70.465 311.282 70.676 C 311.493 70.886 311.072 71.357 311.282 71.567 C 311.493 71.778 311.964 71.357 312.174 71.567 C 312.384 71.778 311.964 72.249 312.174 72.459 C 312.384 72.67 312.8 72.326 313.066 72.459 C 313.442 72.647 313.582 73.163 313.958 73.351 C 314.224 73.484 314.64 73.141 314.85 73.351 C 315.06 73.561 314.64 74.033 314.85 74.243 C 315.06 74.453 315.532 74.033 315.742 74.243 C 315.952 74.453 315.532 74.925 315.742 75.135 C 315.952 75.345 316.424 74.925 316.634 75.135 C 316.844 75.345 316.424 75.817 316.634 76.027 C 316.844 76.237 317.316 75.817 317.526 76.027 C 317.736 76.237 317.316 76.709 317.526 76.919 C 317.736 77.129 318.207 76.709 318.418 76.919 C 318.628 77.129 318.207 77.601 318.418 77.811 C 318.628 78.021 319.099 77.601 319.31 77.811 C 319.52 78.021 319.099 78.493 319.31 78.703 C 319.52 78.913 319.991 78.493 320.202 78.703 C 320.412 78.913 319.991 79.384 320.202 79.595 C 320.412 79.805 320.883 79.384 321.093 79.595 C 321.304 79.805 320.883 80.276 321.093 80.487 C 321.304 80.697 321.775 80.276 321.985 80.487 C 322.196 80.697 321.775 81.168 321.985 81.379 C 322.196 81.589 322.667 81.168 322.877 81.379 C 323.087 81.589 322.667 82.06 322.877 82.27 C 323.087 82.481 323.559 82.06 323.769 82.27 C 323.979 82.481 323.559 82.952 323.769 83.162 C 323.979 83.373 324.451 82.952 324.661 83.162 C 324.958 83.46 324.364 84.649 324.661 84.946 C 324.871 85.156 325.343 84.736 325.553 84.946 C 325.763 85.156 325.343 85.628 325.553 85.838 C 325.763 86.048 326.235 85.628 326.445 85.838 C 326.655 86.048 326.235 86.52 326.445 86.73 C 326.655 86.94 327.127 86.52 327.337 86.73 C 327.634 87.027 327.04 88.217 327.337 88.514 C 327.547 88.724 328.019 88.304 328.229 88.514 C 328.439 88.724 328.019 89.196 328.229 89.406 C 328.439 89.616 328.91 89.196 329.121 89.406 C 329.541 89.826 328.7 90.769 329.121 91.19 C 329.331 91.4 329.802 90.979 330.013 91.19 C 330.31 91.487 329.715 92.676 330.013 92.973 C 330.223 93.184 330.694 92.763 330.905 92.973 C 331.325 93.394 330.484 94.337 330.905 94.757 C 331.115 94.967 331.586 94.547 331.796 94.757 C 332.007 94.967 331.796 95.352 331.796 95.649 C 331.796 95.946 331.796 96.244 331.796 96.541 C 331.796 96.838 331.586 97.223 331.796 97.433 C 332.007 97.643 332.478 97.223 332.688 97.433 C 332.899 97.643 332.688 98.028 332.688 98.325 C 332.688 99.217 332.688 100.109 332.688 101.001 C 332.688 101.298 332.478 101.682 332.688 101.893 C 332.899 102.103 333.37 101.682 333.58 101.893 C 333.79 102.103 333.58 102.487 333.58 102.785 C 333.58 103.082 333.58 103.379 333.58 103.676 C 333.58 105.758 333.58 107.839 333.58 109.92 L 132.899 111.704 Z" transform="matrix(1, 0, 0, 1, -5.684341886080802e-14, -7.105427357601002e-15)"/>

<!-- Hat Bill -->
<path style="fill: rgb(17, 3, 61); stroke: rgb(255, 255, 255); stroke-opacity: 0" d="M 333.58 110.812 C 341.905 110.812 334.472 109.92 336.256 111.704 C 336.466 111.914 336.851 111.704 337.148 111.704 C 337.445 111.704 337.743 111.704 338.04 111.704 C 338.337 111.704 338.722 111.493 338.932 111.704 C 339.142 111.914 338.722 112.385 338.932 112.596 C 339.229 112.893 340.418 112.298 340.716 112.596 C 340.926 112.806 340.505 113.277 340.716 113.487 C 341.013 113.785 342.202 113.19 342.499 113.487 C 342.71 113.698 342.289 114.169 342.499 114.379 C 342.92 114.8 343.863 113.959 344.283 114.379 C 344.493 114.59 344.073 115.061 344.283 115.271 C 344.493 115.482 344.965 115.061 345.175 115.271 C 345.385 115.482 344.965 115.953 345.175 116.163 C 345.596 116.584 346.539 115.743 346.959 116.163 C 347.169 116.373 346.749 116.845 346.959 117.055 C 347.256 117.352 348.446 116.758 348.743 117.055 C 348.953 117.265 348.533 117.737 348.743 117.947 C 348.953 118.157 349.425 117.737 349.635 117.947 C 349.845 118.157 349.425 118.629 349.635 118.839 C 349.845 119.049 350.316 118.629 350.527 118.839 C 350.824 119.136 350.229 120.326 350.527 120.623 C 350.737 120.833 351.208 120.413 351.419 120.623 C 351.839 121.043 350.998 121.986 351.419 122.407 C 351.629 122.617 352.1 122.196 352.31 122.407 C 352.521 122.617 352.178 123.033 352.31 123.299 C 352.499 123.675 353.014 123.814 353.202 124.19 C 353.335 124.456 353.202 124.785 353.202 125.082 C 353.202 125.974 353.202 126.866 353.202 127.758 C 353.202 128.055 353.413 128.44 353.202 128.65 C 352.992 128.86 352.521 128.44 352.31 128.65 C 352.1 128.86 352.521 129.332 352.31 129.542 C 352.1 129.752 351.629 129.332 351.419 129.542 C 351.208 129.752 351.629 130.224 351.419 130.434 C 351.208 130.644 350.737 130.224 350.527 130.434 C 350.316 130.644 350.737 131.116 350.527 131.326 C 350.106 131.746 349.163 130.905 348.743 131.326 C 348.533 131.536 348.953 132.008 348.743 132.218 C 348.533 132.428 348.148 132.218 347.851 132.218 C 347.554 132.218 347.256 132.218 346.959 132.218 C 346.662 132.218 346.277 132.008 346.067 132.218 C 345.857 132.428 346.277 132.899 346.067 133.11 C 345.857 133.32 345.472 133.11 345.175 133.11 C 344.878 133.11 344.581 133.11 344.283 133.11 C 343.986 133.11 343.602 132.899 343.391 133.11 C 343.181 133.32 343.602 133.791 343.391 134.002 C 343.181 134.212 342.797 134.002 342.499 134.002 C 341.905 134.002 341.31 134.002 340.716 134.002 C 340.418 134.002 340.034 133.791 339.824 134.002 C 339.613 134.212 340.034 134.683 339.824 134.893 C 339.613 135.104 339.229 134.893 338.932 134.893 C 337.743 134.893 336.553 134.893 335.364 134.893 C 335.067 134.893 334.682 134.683 334.472 134.893 C 334.262 135.104 334.682 135.575 334.472 135.785 C 334.262 135.996 333.878 135.785 333.58 135.785 C 332.986 135.785 332.391 135.785 331.796 135.785 C 329.715 135.785 327.634 135.785 325.553 135.785 C 323.769 135.785 321.985 135.785 320.202 135.785 C 319.904 135.785 319.607 135.785 319.31 135.785 C 319.012 135.785 318.628 135.575 318.418 135.785 C 318.207 135.996 318.628 136.467 318.418 136.677 C 318.207 136.888 317.823 136.677 317.526 136.677 C 317.228 136.677 316.931 136.677 316.634 136.677 C 315.445 136.677 314.255 136.677 313.066 136.677 C 307.715 136.677 302.363 136.677 297.012 136.677 C 268.768 136.677 240.524 136.677 212.28 136.677 C 206.928 136.677 201.577 136.677 196.225 136.677 C 194.441 136.677 192.657 136.677 190.874 136.677 C 190.279 136.677 189.684 136.677 189.09 136.677 C 188.793 136.677 188.464 136.81 188.198 136.677 C 187.822 136.489 187.682 135.973 187.306 135.785 C 187.04 135.652 186.711 135.785 186.414 135.785 C 185.522 135.785 184.63 135.785 183.738 135.785 C 181.954 135.785 180.171 135.785 178.387 135.785 C 178.09 135.785 177.792 135.785 177.495 135.785 C 177.198 135.785 176.869 135.918 176.603 135.785 C 176.227 135.597 176.087 135.082 175.711 134.893 C 175.445 134.761 175.116 134.893 174.819 134.893 C 174.225 134.893 173.63 134.893 173.035 134.893 C 171.251 134.893 169.468 134.893 167.684 134.893 C 167.089 134.893 166.495 134.893 165.9 134.893 C 165.603 134.893 165.218 135.104 165.008 134.893 C 164.798 134.683 165.218 134.212 165.008 134.002 C 164.798 133.791 164.413 134.002 164.116 134.002 C 162.927 134.002 161.738 134.002 160.548 134.002 C 160.251 134.002 159.867 134.212 159.657 134.002 C 159.446 133.791 159.867 133.32 159.657 133.11 C 159.446 132.899 159.062 133.11 158.765 133.11 C 157.873 133.11 156.981 133.11 156.089 133.11 C 155.792 133.11 155.407 133.32 155.197 133.11 C 154.987 132.899 155.407 132.428 155.197 132.218 C 154.987 132.008 154.602 132.218 154.305 132.218 C 153.71 132.218 153.116 132.218 152.521 132.218 C 152.224 132.218 151.84 132.428 151.629 132.218 C 151.419 132.008 151.84 131.536 151.629 131.326 C 151.419 131.116 151.035 131.326 150.737 131.326 C 150.44 131.326 150.143 131.326 149.846 131.326 C 149.548 131.326 149.164 131.536 148.954 131.326 C 148.743 131.116 149.164 130.644 148.954 130.434 C 148.656 130.137 147.467 130.731 147.17 130.434 C 146.96 130.224 147.38 129.752 147.17 129.542 C 146.749 129.122 145.806 129.962 145.386 129.542 C 145.176 129.332 145.596 128.86 145.386 128.65 C 145.089 128.353 143.899 128.947 143.602 128.65 C 143.392 128.44 143.812 127.968 143.602 127.758 C 143.392 127.548 142.92 127.968 142.71 127.758 C 142.5 127.548 142.92 127.076 142.71 126.866 C 142.5 126.656 142.028 127.076 141.818 126.866 C 141.608 126.656 142.028 126.185 141.818 125.974 C 141.608 125.764 141.137 126.185 140.926 125.974 C 140.716 125.764 141.137 125.293 140.926 125.082 C 140.716 124.872 140.245 125.293 140.034 125.082 C 139.824 124.872 140.245 124.401 140.034 124.19 C 139.824 123.98 139.353 124.401 139.143 124.19 C 138.932 123.98 139.353 123.509 139.143 123.299 C 138.932 123.088 138.461 123.509 138.251 123.299 C 137.83 122.878 138.671 121.935 138.251 121.515 C 138.04 121.305 137.569 121.725 137.359 121.515 C 137.061 121.217 137.656 120.028 137.359 119.731 C 137.148 119.521 136.677 119.941 136.467 119.731 C 136.257 119.521 136.467 119.136 136.467 118.839 C 136.467 118.542 136.467 118.244 136.467 117.947 C 136.467 117.65 136.677 117.265 136.467 117.055 C 136.257 116.845 135.785 117.265 135.575 117.055 C 135.365 116.845 135.575 116.461 135.575 116.163 C 135.575 115.569 135.575 114.974 135.575 114.379 C 135.575 114.082 135.785 113.698 135.575 113.487 C 135.365 113.277 134.683 113.785 134.683 113.487 L 333.58 110.812 Z" transform="matrix(1, 0, 0, 1, -5.684341886080802e-14, -7.105427357601002e-15)"/>

<!-- Hat Tip -->
<path style="fill: rgb(17, 3, 61); stroke: rgb(255, 255, 255); stroke-opacity: 0" d="M 222.983 47.486 C 222.983 46.296 222.983 45.107 222.983 43.918 C 222.983 43.621 222.983 43.323 222.983 43.026 C 222.983 42.729 222.772 42.344 222.983 42.134 C 223.193 41.924 223.664 42.344 223.875 42.134 C 224.085 41.924 223.664 41.453 223.875 41.242 C 224.295 40.822 225.238 41.663 225.658 41.242 C 225.869 41.032 225.448 40.561 225.658 40.35 C 225.869 40.14 226.253 40.35 226.55 40.35 C 226.848 40.35 227.145 40.35 227.442 40.35 C 228.631 40.35 229.821 40.35 231.01 40.35 C 231.307 40.35 231.692 40.14 231.902 40.35 C 232.112 40.561 231.692 41.032 231.902 41.242 C 232.199 41.54 233.388 40.945 233.686 41.242 C 233.896 41.453 233.475 41.924 233.686 42.134 C 233.896 42.344 234.367 41.924 234.578 42.134 C 234.998 42.555 234.157 43.498 234.578 43.918 C 234.788 44.128 235.259 43.708 235.469 43.918 C 235.68 44.128 235.469 44.513 235.469 44.81 C 235.469 45.405 235.469 45.999 235.469 46.594 C 233.983 46.594 232.496 46.594 231.01 46.594 C 230.713 46.594 230.415 46.594 230.118 46.594 C 229.821 46.594 229.436 46.384 229.226 46.594 C 229.016 46.804 229.436 47.275 229.226 47.486 C 229.016 47.696 228.631 47.486 228.334 47.486 C 228.037 47.486 227.74 47.486 227.442 47.486 C 225.956 47.486 224.469 47.486 222.983 47.486 Z" transform="matrix(1, 0, 0, 1, -5.684341886080802e-14, -7.105427357601002e-15)"/>
</svg>
