<svg version="1.1" id="Layer_1" xmlns="http://www.w3.org/2000/svg" xmlns:xlink="http://www.w3.org/1999/xlink" x="0px" y="0px" width="100%" viewBox="0 0 162 163" enable-background="new 0 0 162 163" xml:space="preserve">
	<!-- Background -->
	<path fill="#F1F5F9" opacity="1.000000" stroke="none" d="M163.000000,65.000000 C163.000000,97.976311 163.000000,130.952621 163.000000,163.964462 C109.062477,163.964462 55.124920,163.964462 1.093683,163.964462 C1.093683,109.768272 1.093683,55.536327 1.093683,1.152190 C54.999680,1.152190 108.999786,1.152190 163.000000,1.152190 C163.000000,8.740182 163.000000,16.401400 162.764771,24.515879 C162.529526,24.969141 162.058167,24.980318 161.950806,24.614098 C158.642914,10.110174 149.818573,3.051871 135.249680,3.001406 C129.255264,2.980643 123.260719,2.997684 117.266235,2.998006 C102.452942,2.998802 94.033531,8.720482 88.628250,22.459452 C86.071404,28.958353 88.482735,36.425529 94.442787,40.465408 C100.146271,44.331371 108.409599,44.124249 112.421242,38.250603 C116.400192,32.424835 121.325035,33.047867 126.700150,32.987339 C130.713928,32.942146 132.463531,35.001194 132.481247,38.826679 C132.497452,42.323395 132.199799,45.850033 132.556885,49.310184 C133.125610,54.820927 130.711060,57.426105 125.509659,58.854141 C109.031113,63.378319 92.578316,68.026978 76.272720,73.129700 C72.003250,74.465805 67.931793,77.172600 64.432358,80.054825 C59.442417,84.164665 55.063988,89.016968 49.960720,93.362656 C46.008759,93.114334 42.517258,93.129158 39.032898,92.978600 C34.350563,92.776268 32.342728,95.256271 32.219925,99.612625 C32.102852,103.765823 32.117153,107.922729 31.879368,112.346565 C23.441065,120.868317 15.061561,128.991669 6.993807,137.413651 C-0.119163,144.838928 1.487214,156.064362 10.043239,160.940353 C16.441584,164.586731 22.906073,163.435440 28.992666,157.368347 C46.579784,139.837524 64.103760,122.243324 81.708351,104.730125 C83.196877,103.249336 84.926628,101.607819 86.842964,101.027863 C96.852364,97.998688 106.958305,95.288521 117.081367,92.835304 C120.501389,95.270546 123.689079,97.814720 127.319183,99.197334 C129.047943,99.855789 132.563583,99.016144 133.621597,97.612633 C136.252487,94.122597 137.937027,89.919167 140.297134,85.786118 C151.141281,82.896187 158.720154,77.031731 161.642578,66.092438 C161.763519,65.639725 162.532791,65.360207 163.000000,65.000000 z"/>

	<!-- Staff -->
	<path fill="#203251" opacity="1.000000" stroke="none" d="M117.030663,92.467392 C106.958305,95.288521 96.852364,97.998688 86.842964,101.027863 C84.926628,101.607819 83.196877,103.249336 81.708351,104.730125 C64.103760,122.243324 46.579784,139.837524 28.992666,157.368347 C22.906073,163.435440 16.441584,164.586731 10.043239,160.940353 C1.487214,156.064362 -0.119163,144.838928 6.993807,137.413651 C15.061561,128.991669 23.441065,120.868317 32.195755,112.235138 C38.612434,105.754150 44.518398,99.653137 50.424358,93.552132 C55.063988,89.016968 59.442417,84.164665 64.432358,80.054825 C67.931793,77.172600 72.003250,74.465805 76.272720,73.129700 C92.578316,68.026978 109.031113,63.378319 125.509659,58.854141 C130.711060,57.426105 133.125610,54.820927 132.556885,49.310184 C132.199799,45.850033 132.497452,42.323395 132.481247,38.826679 C132.463531,35.001194 130.713928,32.942146 126.700150,32.987339 C121.325035,33.047867 116.400192,32.424835 112.421242,38.250603 C108.409599,44.124249 100.146271,44.331371 94.442787,40.465408 C88.482735,36.425529 86.071404,28.958353 88.628250,22.459452 C94.033531,8.720482 102.452942,2.998802 117.266235,2.998006 C123.260719,2.997684 129.255264,2.980643 135.249680,3.001406 C149.818573,3.051871 158.642914,10.110174 161.875305,25.078979 C161.940460,37.323414 161.942673,48.737038 162.050186,60.149666 C162.062302,61.435982 162.669006,62.716694 163.000000,64.000000 C163.000000,64.000000 163.000000,64.500000 163.000000,64.750000 C162.532791,65.360207 161.763519,65.639725 161.642578,66.092438 C158.720154,77.031731 151.141281,82.896187 139.893677,85.744148 C131.806671,88.101311 124.418671,90.284348 117.030663,92.467392 z"/>

	<!-- Left Thorn -->
	<path fill="#A6ADBA" opacity="1.000000" stroke="none" d="M49.960720,93.362656 C44.518398,99.653137 38.612434,105.754150 32.390087,111.966583 C32.117153,107.922729 32.102852,103.765823 32.219925,99.612625 C32.342728,95.256271 34.350563,92.776268 39.032898,92.978600 C42.517258,93.129158 46.008759,93.114334 49.960720,93.362656 z"/>

	<!-- Right Thorn -->
	<path fill="#A5ACB9" opacity="1.000000" stroke="none" d="M117.081367,92.835304 C124.418671,90.284348 131.806671,88.101311 139.598145,85.960236 C137.937027,89.919167 136.252487,94.122597 133.621597,97.612633 C132.563583,99.016144 129.047943,99.855789 127.319183,99.197334 C123.689079,97.814720 120.501389,95.270546 117.081367,92.835304 z"/>
</svg>
