<svg version="1.1" id="Layer_1" xmlns="http://www.w3.org/2000/svg" xmlns:xlink="http://www.w3.org/1999/xlink" x="0px" y="0px" width="100%" viewBox="0 0 141 142" xml:space="preserve">
	<!-- Background -->
	<path fill="#F1F5F9" opacity="1.000000" stroke="none" d="M142.000000,12.000002 C142.000000,55.631779 142.000000,99.263557 142.000000,142.947662 C95.072479,142.947662 48.144890,142.947662 1.108648,142.947662 C1.108648,95.777138 1.108648,48.553936 1.108648,1.000000 C45.353680,1.000000 89.708183,1.000000 134.528229,1.218270 C134.993790,1.436540 134.973923,1.872673 134.570404,1.936231 C128.616714,2.997931 122.970123,3.642711 117.550934,5.121078 C114.061417,6.073027 110.215477,7.542804 107.711151,9.989975 C89.487007,27.798185 71.560593,45.911140 53.549519,63.937218 C52.282406,65.205383 51.090836,66.549026 49.486542,68.260368 C57.136013,75.897186 64.666718,83.149109 71.856461,90.724625 C74.724144,93.746178 76.444359,93.200882 79.087082,90.532410 C97.486633,71.953545 116.072311,53.558735 134.424881,34.934029 C136.240402,33.091595 137.231628,30.203712 138.009796,27.621550 C139.559128,22.480446 140.693939,17.214420 142.000000,12.000002 M29.993515,101.395874 C26.950745,104.690407 23.907974,107.984940 20.930592,111.208679 C17.968729,109.772202 15.720044,108.724083 13.509417,107.601044 C8.116408,104.861290 6.043521,109.611069 3.360510,112.353264 C0.561320,115.214203 3.012334,117.421089 5.087083,119.481537 C10.875630,125.230179 16.631487,131.011734 22.398382,136.782166 C28.347511,142.734955 29.301237,142.570511 34.988159,136.585983 C38.002068,133.414337 36.105957,130.943695 34.961437,128.013687 C34.211666,126.094238 33.101372,123.041840 33.968075,121.983154 C37.923634,117.151398 42.521362,112.845352 46.849079,108.390747 C54.279648,113.289139 60.930847,117.699188 67.609352,122.067497 C72.113335,125.013489 73.968933,124.237228 79.304382,117.891426 C82.192490,114.456413 80.290779,112.230446 77.873589,109.821724 C63.131775,95.131569 48.412449,80.418716 33.726032,65.673203 C31.323322,63.260818 29.114729,61.303059 25.669085,64.157700 C19.382832,69.365730 18.551113,71.395256 21.517155,75.960655 C25.941458,82.770622 30.441198,89.531586 35.247204,96.827026 C33.551960,98.283127 32.036812,99.584526 29.993515,101.395874 z"/>

	<!-- Blade -->
	<path fill="#EF5350" opacity="0.500000" stroke="none" d="M142.000000,11.555838 C140.693939,17.214420 139.559128,22.480446 138.009796,27.621550 C137.231628,30.203712 136.240402,33.091595 134.424881,34.934029 C116.072311,53.558735 97.486633,71.953545 79.087082,90.532410 C76.444359,93.200882 74.724144,93.746178 71.856461,90.724625 C64.666718,83.149109 57.136013,75.897186 49.486542,68.260368 C51.090836,66.549026 52.282406,65.205383 53.549519,63.937218 C71.560593,45.911140 89.487007,27.798185 107.711151,9.989975 C110.215477,7.542804 114.061417,6.073027 117.550934,5.121078 C122.970123,3.642711 128.616714,2.997931 134.962204,1.977117 C137.838333,2.636297 139.919174,3.318148 142.000000,4.000000 C142.000000,6.370557 142.000000,8.741115 142.000000,11.555838 z"/>

	<!-- Hilt -->
	<path fill="#D32F2F" opacity="1.000000" stroke="none" d="M30.257591,101.140900 C32.036812,99.584526 33.551960,98.283127 35.247204,96.827026 C30.441198,89.531586 25.941458,82.770622 21.517155,75.960655 C18.551113,71.395256 19.382832,69.365730 25.669085,64.157700 C29.114729,61.303059 31.323322,63.260818 33.726032,65.673203 C48.412449,80.418716 63.131775,95.131569 77.873589,109.821724 C80.290779,112.230446 82.192490,114.456413 79.304382,117.891426 C73.968933,124.237228 72.113335,125.013489 67.609352,122.067497 C60.930847,117.699188 54.279648,113.289139 46.849079,108.390747 C42.521362,112.845352 37.923634,117.151398 33.968075,121.983154 C33.101372,123.041840 34.211666,126.094238 34.961437,128.013687 C36.105957,130.943695 38.002068,133.414337 34.988159,136.585983 C29.301237,142.570511 28.347511,142.734955 22.398382,136.782166 C16.631487,131.011734 10.875630,125.230179 5.087083,119.481537 C3.012334,117.421089 0.561320,115.214203 3.360510,112.353264 C6.043521,109.611069 8.116408,104.861290 13.509417,107.601044 C15.720044,108.724083 17.968729,109.772202 20.930592,111.208679 C23.907974,107.984940 26.950745,104.690407 30.257591,101.140900 z"/>
</svg>